<?xml version="1.0"?>
<svg version="1.1" xmlns="http://www.w3.org/2000/svg" width="349px" height="125px" style=""><path fill="#05adad" d="M26.892,86.881l1.134-0.243q0.891,0,1.701,0.729t0.81,1.134t-5.022,7.8165t-5.022,10.3275q0,0.243,0.081,0.486q0.405,1.863,1.782,1.863q4.212,0,15.39-13.932q0.243-0.324,0.567-0.324t0.324,0.6075t-0.729,1.5795q-10.368,13.851-15.795,13.851q-0.729,0-1.377-0.243q-3.564-1.377-3.564-5.346q0-1.377,0.324-2.754l-5.022,4.86q-4.779,4.212-6.9255,4.212t-4.0905-1.377q-2.187-1.62-2.187-4.293q0-5.913,8.262-14.1345t15.147-8.2215q2.673,0,3.564,1.863q0.243,0.648,0.405,1.0935t0.243,0.4455z M2.673,106.807q0,2.916,2.025,2.916q4.698,0,12.798-10.287l8.586-11.826q-0.648-1.134-2.106-1.134q-4.941,0-13.122,7.6545t-8.181,12.6765z M69.51177,85.666q0-0.486,0.486-0.486q1.458,0,2.268,1.782q0.972,1.539,0.972,5.346q0,5.832-5.103,11.9475t-11.016,6.1155q-2.835,0-4.5765-2.754t-1.7415-5.67t1.296-7.128q-2.349,2.349-6.885,8.0595t-6.156,8.3835q-0.81,0-2.2275-0.891t-1.4175-1.701q0-1.944,4.941-12.8385t7.371-10.8945q0.891,0,1.62,0.8505t0.729,1.296t-4.4145,8.343t-4.3335,9.5175q7.695-9.315,8.181-9.882q7.857-9.072,10.287-9.072q0.891,0,1.7415,0.7695t0.8505,1.377t-2.268,3.6045t-3.8475,5.8725t-1.5795,5.7915q0,5.103,3.402,5.103l1.053,0q4.374,0,7.9785-6.6825t3.6045-10.7325q0-3.24-1.053-5.022q-0.162-0.162-0.162-0.405z M98.03754,93.928q0,2.835-5.427,9.477q-6.399,7.857-10.935,7.857l-1.296,0q-2.106,0-3.321-2.187q-0.972-1.539-0.972-3.402q0-4.86,7.0875-13.6485t11.4615-8.7885q4.131,0,4.131,4.374q0,1.134-0.405,2.916q0.081,0.243,1.539,0.243t4.455-1.539q-0.081,1.377-6.399,3.969q0.081,0.324,0.081,0.729z M92.77254,89.716q-2.754,0-7.8165,6.48t-5.0625,9.558t1.944,3.078q3.483,0,8.829-6.318t5.346-9.072q-1.296-0.729-3.24-3.726z M111.74031,90.04l7.857,0.081q4.698,0,6.723-0.243q0.081,0.081,0.081,0.243q0,1.215-6.399,2.349q-3.483,0.486-6.5205,1.0125t-3.888,0.5265t-2.835-0.3645t-1.9845-1.5795q0-0.81,0.6885-1.377t1.1745-0.567t0.972-0.081l2.106,0l2.025,0z M157.43808,86.557q9.072-14.742,12.636-14.742q0.567,0,1.5795,0.3645t1.0125,1.0935q0,0.405-0.405,1.053q-6.48,7.938-9.639,11.907q-9.558,12.069-10.53,17.334q-0.243,1.134-0.243,2.268q0,3.645,2.997,3.645q5.994,0,15.633-11.097q0.81-0.81,1.377-0.9315t0.567,0.2835t-0.486,0.972q-9.396,11.259-16.686,12.555q-0.405,0.081-1.134,0.081q-2.511,0-3.7665-1.7415t-1.2555-3.7665q0-2.268,0.891-5.022l-6.561,6.561q-4.455,4.131-7.0065,4.131t-4.2525-1.377q-2.025-1.539-2.025-4.293q0-5.913,8.262-14.1345t15.147-8.2215q2.268,0,3.159,1.215q0.324,0.405,0.729,1.863z M133.54308,106.807q0,2.916,2.025,2.916q3.483,0,11.583-9.558q1.458-1.701,9.72-12.717q-0.567-0.972-1.944-0.972q-5.022,0-13.203,7.6545t-8.181,12.6765z M176.40585,112.153q-0.891,0-1.62-0.243q-5.184-1.458-5.184-5.832q0-5.67,7.128-13.122t12.798-7.452q1.863,0,3.0375,1.0125t1.1745,2.4705q0,4.536-6.8445,8.667t-11.1375,4.131q-0.648,0-1.134-0.162q-1.215,2.187-1.215,4.617q0,4.212,4.0095,4.212t10.4085-5.427q4.941-3.969,8.424-8.424q0.729-0.972,1.2555-0.972t0.5265,0.486t-0.648,1.377q-4.374,5.751-10.53,10.206t-10.449,4.455z M191.71485,88.825q0-0.972-2.0655-0.972t-5.8725,3.159q-5.103,4.212-7.938,8.829q0.486,0.162,1.053,0.162q3.078,0,8.2215-3.2805t6.4395-7.1685q0.162-0.405,0.162-0.729z M229.71762,71.491q0,2.511-1.458,2.511q-0.405,0-0.81-0.648q-0.729-1.296-2.43-1.296q-3.726,0-6.966,5.346q-0.648,1.053-4.05,7.614l0.972,0q8.829,0,11.745-0.243q0.324,0.081,0.324,0.324q0,0.648-5.751,1.782q-5.427,0.891-8.91,1.539q-2.511,5.184-6.075,12.312q-7.29,13.608-9.639,16.929q-7.047,10.044-13.77,10.044q-2.349,0-4.0905-1.9845t-1.8225-4.4145q0.243-0.972,0.729-0.972q0.243,0,0.324,0.567q0.486,2.106,1.62,3.24t2.349,1.134q6.885,0,12.555-8.505q3.24-4.86,8.829-17.496l4.374-10.53q-8.1-0.081-8.1-1.944q0-0.81,0.7695-1.377t1.3365-0.567l7.614,0.162q7.938-17.658,14.58-17.658q2.511,0,5.103,2.43q0.648,0.648,0.648,1.701z M239.73489,78.8215q1.0935,0.7695,1.0935,1.8225t-1.0125,1.8225t-2.2275,0.7695t-2.2275-0.891t-1.0125-2.025q0-2.268,3.078-2.268q1.215,0,2.3085,0.7695z M222.76539,111.991q-4.131,0-4.131-5.346q0-4.374,4.779-12.1095t7.695-7.8165q0.81,0,1.8225,0.648t1.0125,1.296q-0.405,0.567-0.972,1.2555t-1.215,1.4985t-1.782,2.3085t-2.187,2.8755q-6.075,7.857-6.075,10.8135t2.025,2.9565q1.701,0,4.617-1.863q6.804-4.212,10.773-9.234q1.458-1.863,1.9845-1.863t0.5265,0.648t-1.863,2.592t-2.9565,3.078t-1.4985,1.4985t-1.4985,1.377t-1.6605,1.4175t-1.62,1.215t-1.863,1.1745t-1.863,0.8505q-1.701,0.729-4.05,0.729z"/><path fill="#" d=""/></svg>
